<?xml version="1.0" encoding="UTF-8" standalone="no"?>
<svg
   class="svg-inline--fa fa-hourglass-half commons stage-in-progress-hero"
   aria-hidden="true"
   focusable="false"
   data-prefix="fas"
   data-icon="hourglass-half"
   role="img"
   viewBox="0 0 500 500"
   data-fa-i2svg=""
   version="1.1"
   id="svg1"
   sodipodi:docname="status_pending.svg"
   inkscape:version="1.4.3 (0d15f750, 2025-12-25)"
   width="500"
   height="500"
   xmlns:inkscape="http://www.inkscape.org/namespaces/inkscape"
   xmlns:sodipodi="http://sodipodi.sourceforge.net/DTD/sodipodi-0.dtd"
   xmlns="http://www.w3.org/2000/svg"
   xmlns:svg="http://www.w3.org/2000/svg">
  <defs
     id="defs1" />
  <sodipodi:namedview
     id="namedview1"
     pagecolor="#ffffff"
     bordercolor="#000000"
     borderopacity="0.25"
     inkscape:showpageshadow="2"
     inkscape:pageopacity="0.0"
     inkscape:pagecheckerboard="0"
     inkscape:deskcolor="#d1d1d1"
     inkscape:zoom="0.89263659"
     inkscape:cx="204.4505"
     inkscape:cy="355.68786"
     inkscape:window-width="1720"
     inkscape:window-height="1306"
     inkscape:window-x="0"
     inkscape:window-y="25"
     inkscape:window-maximized="0"
     inkscape:current-layer="svg1" />
  <g
     id="g1">
    <path
       fill="currentColor"
       d="m 149.96875,90 c -11.06249,0 -20,8.937499 -20,20 0,11.0625 8.93751,19.99999 20,19.99999 v 6.875 c 0,26.5 10.5625,51.93752 29.3125,70.6875 l 42.375,42.4375 -42.375,42.4375 c -18.75,18.75 -29.3125,44.18751 -29.3125,70.68751 v 6.87499 c -11.06249,0 -20,8.9375 -20,20.00001 0,11.0625 8.93751,20 20,20 h 20 160 20 c 11.06251,0 20,-8.9375 20,-20 0,-11.06251 -8.93749,-20.00001 -20,-20.00001 V 363.125 c 0,-26.5 -10.5625,-51.93751 -29.3125,-70.68751 l -42.37499,-42.4375 42.43749,-42.4375 c 18.75,-18.74998 29.3125,-44.1875 29.3125,-70.6875 v -6.875 c 11.0625,0 20,-8.93749 20,-19.99999 0,-11.062502 -8.9375,-20.000001 -20,-20.000001 h -20.0625 -160 z m 40,46.87499 v -6.875 h 120 v 6.875 c 0,11.87502 -3.5,23.37501 -10,33.12501 h -100 c -6.43749,-9.75 -10,-21.24999 -10,-33.12501 z m 10,193.125 c 2.18751,-3.3125 4.75001,-6.4375 7.5625,-9.3125 l 42.4375,-42.375 42.4375,42.43751 c 2.87501,2.87501 5.375,6 7.5625,9.3125 z"
       id="path1"
       style="fill:#5ba5e0;fill-opacity:1;stroke-width:0.625371;stroke-dasharray:none" />
    <circle
       style="fill:none;fill-opacity:1;stroke:#5ba5e0;stroke-width:38.4466;stroke-dasharray:none;stroke-opacity:1"
       id="path2"
       cx="250"
       cy="250"
       r="230.77672" />
  </g>
</svg>
